<?xml version="1.0" standalone="no"?>
<!DOCTYPE svg PUBLIC "-//W3C//DTD SVG 20010904//EN"
 "http://www.w3.org/TR/2001/REC-SVG-20010904/DTD/svg10.dtd">
<svg version="1.0" xmlns="http://www.w3.org/2000/svg"
 width="512.000000pt" height="512.000000pt" viewBox="0 0 512.000000 512.000000"
 preserveAspectRatio="xMidYMid meet">

<g transform="translate(0.000000,512.000000) scale(0.100000,-0.100000)"
fill="#000000" stroke="none">
<path d="M2122 5104 c-74 -20 -108 -39 -170 -98 -54 -51 -103 -133 -116 -192
-6 -25 -14 -33 -37 -38 -94 -19 -217 -117 -263 -211 -40 -83 -45 -125 -46
-375 l0 -236 -52 -34 c-36 -24 -62 -51 -80 -85 l-28 -50 0 -228 c0 -246 3
-263 56 -326 43 -52 115 -81 199 -81 l71 0 17 -91 c34 -179 118 -339 244 -468
l73 -74 0 -121 0 -121 -135 -68 c-121 -60 -142 -67 -194 -67 -141 0 -318 -50
-451 -127 -95 -55 -255 -219 -303 -309 -61 -117 -77 -199 -77 -396 l0 -168
-89 0 -89 0 -3 113 c-4 94 -8 118 -26 148 -23 36 -65 63 -115 74 l-28 5 0 258
c1 219 3 264 18 307 10 28 64 119 121 203 l103 154 21 -20 c51 -48 104 -62
236 -62 156 0 192 10 256 75 102 101 102 229 0 330 -64 65 -100 75 -256 75
-136 0 -186 -14 -242 -68 -32 -30 -67 -92 -67 -119 0 -9 -67 -119 -149 -243
-81 -124 -157 -245 -167 -270 -16 -40 -19 -79 -22 -332 l-3 -288 -38 -10 c-43
-11 -85 -41 -104 -73 -6 -12 -14 -73 -17 -137 l-5 -115 -35 -5 c-49 -8 -88
-37 -111 -81 -15 -31 -19 -59 -19 -154 0 -76 5 -127 14 -149 17 -42 70 -82
118 -91 l38 -7 0 -74 c0 -82 13 -122 55 -172 44 -52 98 -75 193 -80 l82 -5 0
-104 c0 -126 14 -163 75 -198 40 -24 50 -25 204 -25 159 0 162 1 186 25 14 13
25 31 25 40 0 12 16 15 100 15 84 0 100 -3 100 -15 0 -9 11 -27 25 -40 l24
-25 1632 0 1632 0 42 25 c61 35 75 72 75 198 l0 104 83 5 c94 5 148 28 192 80
42 50 55 90 55 171 l0 73 43 11 c102 28 127 75 127 238 0 95 -4 123 -19 154
-37 71 -51 75 -276 81 l-200 5 0 605 0 605 200 135 c221 149 250 180 261 277
6 46 -11 104 -230 759 l-236 709 0 171 c0 157 2 173 20 197 67 85 83 220 37
320 -34 74 -88 131 -155 164 -80 39 -192 40 -273 2 -179 -84 -242 -299 -138
-465 l29 -45 0 -359 0 -359 -105 -273 c-58 -150 -105 -281 -105 -291 0 -52 90
-87 128 -49 10 10 71 157 136 327 66 171 121 312 123 314 1 2 3 -381 3 -853
l0 -857 -202 163 c-232 187 -252 212 -251 321 0 49 9 87 46 184 47 122 49 141
19 176 -20 23 -84 23 -105 -1 -9 -10 -37 -71 -62 -137 -59 -150 -68 -235 -37
-334 34 -106 72 -150 250 -293 l162 -130 0 -136 0 -137 -79 77 c-62 59 -100
87 -173 122 -126 62 -188 77 -348 82 l-135 5 -137 67 -138 66 0 122 0 121 73
74 c126 129 210 289 244 468 l17 91 71 0 c84 0 156 29 199 81 53 63 56 80 56
326 l0 228 -28 50 c-18 33 -44 61 -77 83 l-50 34 -6 276 c-7 314 -11 339 -85
491 -96 194 -287 340 -506 385 -107 22 -834 22 -916 0z m2335 -153 c142 -65
121 -278 -32 -321 -164 -46 -284 158 -167 284 54 57 125 70 199 37z m-99 -479
c10 -7 5 -30 -23 -102 -20 -52 -38 -96 -40 -99 -3 -2 -5 44 -5 102 l0 107 28
0 c15 0 33 -4 40 -8z m-1363 -359 c27 -108 138 -234 240 -272 31 -12 60 -21
65 -21 17 0 12 -672 -5 -752 -100 -475 -625 -733 -1060 -523 -188 91 -329 255
-396 460 -22 67 -23 86 -27 443 -2 250 0 372 7 372 6 0 35 9 66 21 102 38 213
164 240 272 l7 27 428 0 428 0 7 -27z m-1335 -558 l0 -255 -65 0 c-57 0 -69 3
-90 25 -25 24 -25 25 -25 227 1 144 4 208 13 219 22 28 51 38 110 39 l57 0 0
-255z m1933 243 c44 -23 46 -34 47 -246 0 -202 0 -203 -25 -227 -21 -22 -33
-25 -90 -25 l-65 0 0 255 0 255 56 0 c30 0 65 -5 77 -12z m-1367 -1412 c119
-50 179 -60 334 -60 158 0 224 12 352 65 l68 28 0 -82 0 -82 -210 -210 -210
-210 -210 210 -210 210 0 83 c0 64 3 83 13 79 6 -3 40 -17 73 -31z m206 -647
c-6 -6 -300 -204 -330 -223 -8 -4 -57 84 -142 253 l-130 261 108 54 107 55
197 -197 c109 -108 194 -199 190 -203z m728 31 l-130 -260 -176 117 -175 117
197 197 197 198 109 -55 108 -54 -130 -260z m1225 163 l85 -68 0 -363 0 -363
-87 3 -88 3 -3 428 c-1 235 0 427 3 427 3 0 44 -30 90 -67z m-2759 30 c-38
-129 -134 -544 -129 -564 12 -47 42 -75 132 -119 l92 -44 -83 -43 -83 -42
-289 0 -288 -1 4 173 c4 149 8 180 28 232 41 105 103 188 202 268 107 85 276
155 381 156 32 1 37 -2 33 -16z m2049 1 c102 -48 236 -218 281 -357 25 -74 28
-100 32 -269 l4 -188 -213 1 -214 0 -83 42 -83 43 92 44 c90 44 120 72 132
119 4 18 -94 449 -129 564 -5 15 3 17 71 17 49 0 89 -6 110 -16z m-956 -430
l159 -106 -84 -141 -83 -142 -151 0 -151 0 -83 142 -84 141 156 105 c87 58
158 106 160 106 1 1 74 -47 161 -105z m2251 -634 l0 -90 -2410 0 -2410 0 0 90
0 90 2410 0 2410 0 0 -90z m-4142 -327 l-3 -88 -228 0 -229 0 -24 28 c-20 23
-24 39 -24 88 l0 59 255 0 256 0 -3 -87z m3820 13 c-5 -109 -1 -107 -192 -104
l-161 3 -3 88 -3 87 182 0 181 0 -4 -74z"/>
<path d="M2180 3610 c-26 -26 -34 -60 -28 -121 6 -61 30 -89 75 -89 56 0 73
27 73 114 0 69 -2 76 -26 95 -34 26 -68 27 -94 1z"/>
<path d="M2846 3609 c-24 -19 -26 -26 -26 -95 0 -61 4 -78 20 -94 26 -26 81
-26 105 0 20 22 31 103 21 145 -15 61 -72 82 -120 44z"/>
<path d="M2393 3209 c-32 -12 -56 -54 -49 -84 9 -35 62 -93 110 -118 30 -15
59 -21 106 -21 76 0 130 23 178 79 41 46 49 78 28 111 -35 52 -89 48 -137 -9
-22 -26 -33 -32 -69 -32 -36 0 -47 6 -69 32 -31 38 -68 53 -98 42z"/>
</g>
</svg>
